<svg xmlns="http://www.w3.org/2000/svg" viewBox="0 0 500 500">
  <g id="freepik--Stars--inject-14">
    <polygon
      points="425.57 77.06 425.66 70.29 430.15 75.32 435 73.81 432.63 78.12 434.91 80.51 431.38 80.87 431.32 85.44 427.44 82.22 424.29 84.84 424.64 80.98 420.04 78.85 425.57 77.06"
      style="fill:#FFC727"></polygon>
    <polygon
      points="421.31 421.3 427.52 424 421.15 426.2 420.67 431.25 417.61 427.4 414.52 428.58 415.55 425.19 411.36 423.36 415.83 421.03 414.63 417.11 418.06 418.93 421.8 415.51 421.31 421.3"
      style="fill:#FFC727"></polygon>
    <polygon
      points="112.15 434.73 106.03 443.16 104.84 432.87 97.41 430.47 104.21 427.15 103.46 422.12 108.21 424.8 112.34 419.1 114.37 426.58 120.66 426.08 116.78 430.63 120.68 437.38 112.15 434.73"
      style="fill:#FFC727"></polygon>
    <polygon
      points="389.85 358.39 393.47 365.62 397.07 358.71 403.92 359.89 400.27 352.63 405.37 347.78 398.16 348.04 396.72 340.98 392.92 348.29 383.33 347.56 388.98 353.4 383.75 357.41 389.85 358.39"
      style="fill:#FFC727"></polygon>
    <polygon
      points="222.44 76.89 224.18 73.97 220.91 74.26 219.78 71.56 218.03 74.5 215.16 73.79 216.88 76.29 214.71 78.4 218.16 78.09 220.07 81.66 220.86 78.33 223.47 79.28 222.44 76.89"
      style="fill:#FFC727"></polygon>
    <polygon
      points="412.74 230.99 412.14 229.07 410.98 230.63 409.35 230.06 409.96 231.99 408.52 232.98 410.29 233.2 410.37 234.99 411.59 233.34 413.91 233.9 412.75 232.25 414.2 231.47 412.74 230.99"
      style="fill:#FFC727"></polygon>
    <polygon
      points="438.71 343.03 440.2 341.69 438.31 341.28 438.15 339.56 436.65 340.91 435.15 340 435.68 341.71 434.09 342.51 436.08 342.95 436.53 345.3 437.56 343.56 438.87 344.56 438.71 343.03"
      style="fill:#FFC727"></polygon>
    <polygon
      points="395.91 110.15 397.4 108.81 395.52 108.4 395.35 106.68 393.85 108.03 392.36 107.12 392.89 108.83 391.29 109.64 393.29 110.07 393.74 112.42 394.77 110.69 396.07 111.68 395.91 110.15"
      style="fill:#FFC727"></polygon>
    <polygon
      points="130.94 385.7 131.01 383.69 129.4 384.77 128.05 383.69 127.98 385.71 126.29 386.15 127.89 386.96 127.36 388.67 129.06 387.53 131.06 388.84 130.53 386.89 132.15 386.65 130.94 385.7"
      style="fill:#FFC727"></polygon>
    <polygon
      points="168.8 58.56 167.78 56.84 167.01 58.61 165.29 58.44 166.32 60.17 165.14 61.46 166.92 61.27 167.4 63 168.21 61.12 170.6 61.14 169.1 59.79 170.33 58.7 168.8 58.56"
      style="fill:#FFC727"></polygon>
    <polygon
      points="73.96 329.49 76.86 323.88 70.85 324.78 68.45 319.9 65.53 325.54 60.13 324.55 63.6 328.99 59.8 333.13 66.16 332.18 70.11 338.58 71.2 332.33 76.14 333.8 73.96 329.49"
      style="fill:#FFC727"></polygon>
    <polygon
      points="103.01 219.59 107.22 220.45 105.52 216.68 108.27 214.2 104.04 213.33 103.69 209.61 101.42 212.71 98 210.99 99.8 214.98 96.34 218.75 100.64 218.31 100.59 221.81 103.01 219.59"
      style="fill:#FFC727"></polygon>
  </g>

</svg>