<svg xmlns="http://www.w3.org/2000/svg" version="1.1" xmlns:xlink="http://www.w3.org/1999/xlink" width="117" height="117"><svg width="117" height="117" viewBox="0 0 117 117" fill="none" xmlns="http://www.w3.org/2000/svg">
<rect width="116.532" height="116.532" fill="black"></rect>
<path d="M0 0H116.532V116.532H0V0Z" fill="black"></path>
<path d="M68.0777 44.5959C67.9346 43.5943 67.584 42.65 67.026 41.7629C66.468 40.8758 65.7526 40.1104 64.8799 39.4665C64.0071 38.8227 63.0199 38.3147 61.9181 37.9427C60.8164 37.5707 59.6647 37.3847 58.4628 37.3847C57.3754 37.3847 56.3596 37.4992 55.4152 37.7281C54.4709 37.957 53.6482 38.3076 52.9471 38.7797C52.2461 39.2519 51.6881 39.86 51.2731 40.604C50.8582 41.348 50.6507 42.2351 50.6507 43.2652C50.6507 44.5529 50.9297 45.576 51.4878 46.3343C52.0458 47.0926 52.7611 47.715 53.6339 48.2014C54.5067 48.6879 55.4725 49.0742 56.5313 49.3604C57.59 49.6465 58.6202 49.9613 59.6217 50.3047L71.4257 54.2536C73.0568 54.826 74.5877 55.6129 76.0185 56.6144C77.4493 57.616 78.6869 58.8321 79.7314 60.2629C80.7759 61.6937 81.5986 63.3391 82.1995 65.1991C82.8004 67.0591 83.1009 69.1481 83.1009 71.466C83.1009 74.6137 82.5214 77.4895 81.3625 80.0936C80.2035 82.6976 78.5796 84.9296 76.4907 86.7896C74.4017 88.6497 71.8979 90.0947 68.9791 91.1249C66.0603 92.1551 62.8267 92.6701 59.2784 92.6701C56.7888 92.6701 54.4352 92.3911 52.2175 91.8331C49.9997 91.2751 47.9752 90.4667 46.1438 89.408C44.3124 88.3492 42.7099 87.0829 41.3364 85.6092C39.9628 84.1355 38.8897 82.4687 38.1171 80.6087H33.696V67.6887H49.2343V70.35C49.2343 71.6377 49.4417 72.8252 49.8567 73.9126C50.2716 75 50.894 75.9443 51.7238 76.7455C52.5537 77.5468 53.5982 78.1692 54.8573 78.6127C56.1163 79.0563 57.59 79.278 59.2784 79.278C61.8538 79.278 63.8139 78.6843 65.1589 77.4967C66.5038 76.3092 67.1763 74.6566 67.1763 72.539C67.1763 71.4517 66.9402 70.5431 66.468 69.8134C65.9959 69.0837 65.3878 68.4685 64.6438 67.9677C63.8998 67.4669 63.0699 67.0448 62.1542 66.7015C61.2385 66.3581 60.3371 66.0433 59.4501 65.7571L49.6206 62.5808C47.7606 62.0085 45.9649 61.2073 44.2337 60.1771C42.5025 59.1469 40.9715 57.8592 39.6409 56.314C38.3103 54.7687 37.2515 52.9588 36.4646 50.8842C35.6776 48.8095 35.2842 46.4416 35.2842 43.7803C35.2842 40.6898 35.8565 37.9356 37.0011 35.5176C38.1457 33.0995 39.7482 31.0607 41.8085 29.401C43.8688 27.7413 46.3155 26.4822 49.1484 25.6237C51.9814 24.7652 55.0862 24.336 58.4628 24.336C61.1241 24.336 63.585 24.6436 65.8457 25.2589C68.1063 25.8741 70.1309 26.6968 71.9193 27.727C73.7078 28.7571 75.2244 29.9375 76.4692 31.2681C77.714 32.5988 78.6655 33.9795 79.3236 35.4103H83.616V48.3731H68.0777L68.0777 44.5959Z" fill="#F2B714"></path>
</svg><style>@media (prefers-color-scheme: light) { :root { filter: none; } }
@media (prefers-color-scheme: dark) { :root { filter: none; } }
</style></svg>