<svg xmlns="http://www.w3.org/2000/svg" viewBox="0 0 500 500">

  <g id="freepik--Stars--inject-18">
    <polygon
      points="144.68 71.59 141.84 81.22 148.16 89.03 138.12 89.3 132.65 97.73 129.29 88.26 119.58 85.67 127.55 79.54 127.02 69.51 135.3 75.19 144.68 71.59"
      style="fill:#fff"></polygon>
    <path
      d="M132.65,98.23h-.06a.51.51,0,0,1-.41-.33l-3.27-9.22-9.46-2.53a.51.51,0,0,1-.36-.39.52.52,0,0,1,.19-.49l7.76-6-.52-9.77a.53.53,0,0,1,.25-.47.51.51,0,0,1,.53,0l8.07,5.53,9.13-3.51a.5.5,0,0,1,.52.1.49.49,0,0,1,.14.51l-2.77,9.38,6.16,7.6a.5.5,0,0,1-.37.82l-9.78.27L133.07,98A.48.48,0,0,1,132.65,98.23Zm-12-12.78,8.73,2.33a.48.48,0,0,1,.34.32l3,8.51L137.7,89a.51.51,0,0,1,.41-.23l9-.24-5.69-7a.51.51,0,0,1-.09-.46l2.56-8.66-8.44,3.24a.48.48,0,0,1-.46-.06l-7.45-5.1.48,9a.5.5,0,0,1-.2.42Z"
      style="fill:#263238"></path>
    <polygon
      points="344.79 104.08 338.68 107.1 337.7 113.84 332.94 108.96 326.22 110.12 329.4 104.08 326.22 98.05 332.94 99.2 337.7 94.32 338.68 101.07 344.79 104.08"
      style="fill:#fff"></polygon>
    <path
      d="M337.7,114.34a.48.48,0,0,1-.36-.15l-4.57-4.69-6.46,1.11a.5.5,0,0,1-.53-.73l3.05-5.8-3.05-5.8a.49.49,0,0,1,0-.52.5.5,0,0,1,.49-.2l6.46,1.11L337.34,94a.5.5,0,0,1,.85.27l.94,6.49,5.88,2.9a.49.49,0,0,1,.28.44.5.5,0,0,1-.28.45l-5.88,2.9-.94,6.49a.5.5,0,0,1-.34.4A.39.39,0,0,1,337.7,114.34Zm-4.76-5.88a.55.55,0,0,1,.36.15l4.05,4.16.83-5.74a.52.52,0,0,1,.28-.38l5.2-2.57-5.2-2.56a.54.54,0,0,1-.28-.38l-.83-5.74-4.05,4.15a.49.49,0,0,1-.44.15l-5.72-1,2.7,5.13a.49.49,0,0,1,0,.47l-2.7,5.13,5.72-1Z"
      style="fill:#263238"></path>
    <polygon
      points="465.37 270.84 460.77 275.64 462.12 282.15 456.13 279.26 450.36 282.56 451.25 275.97 446.34 271.5 452.88 270.31 455.61 264.26 458.76 270.11 465.37 270.84"
      style="fill:#fff"></polygon>
    <path
      d="M450.36,283.06a.47.47,0,0,1-.28-.09.51.51,0,0,1-.22-.48l.86-6.33L446,271.87a.49.49,0,0,1-.14-.51.48.48,0,0,1,.39-.35l6.28-1.14,2.63-5.82a.47.47,0,0,1,.43-.29.5.5,0,0,1,.46.26l3,5.62,6.35.7a.51.51,0,0,1,.42.33.5.5,0,0,1-.11.51l-4.42,4.62,1.3,6.25a.49.49,0,0,1-.18.49.51.51,0,0,1-.53.06l-5.75-2.77L450.61,283A.59.59,0,0,1,450.36,283.06Zm-2.94-11.25,4.17,3.79a.51.51,0,0,1,.16.44l-.76,5.58,4.89-2.79a.52.52,0,0,1,.47,0l5.07,2.45-1.14-5.52a.5.5,0,0,1,.13-.45l3.89-4.07-5.6-.61a.52.52,0,0,1-.38-.26l-2.67-5-2.32,5.14a.49.49,0,0,1-.36.29Z"
      style="fill:#263238"></path>
    <polygon
      points="235.33 407.66 228.95 413.98 230.53 422.82 222.55 418.7 214.64 422.94 216.09 414.08 209.61 407.86 218.49 406.5 222.4 398.42 226.43 406.44 235.33 407.66"
      style="fill:#fff"></polygon>
    <path
      d="M214.64,423.44a.43.43,0,0,1-.29-.1.48.48,0,0,1-.21-.48l1.41-8.6-6.29-6a.51.51,0,0,1,.27-.86l8.62-1.31,3.8-7.85a.49.49,0,0,1,.44-.28.51.51,0,0,1,.46.27l3.91,7.79,8.64,1.19a.5.5,0,0,1,.28.85l-6.19,6.13,1.53,8.58a.49.49,0,0,1-.19.49.51.51,0,0,1-.53,0l-7.74-4-7.69,4.12A.46.46,0,0,1,214.64,423.44Zm-3.95-15.24,5.74,5.52a.49.49,0,0,1,.15.44L215.29,422l7-3.76a.5.5,0,0,1,.46,0l7.08,3.66-1.41-7.84a.54.54,0,0,1,.15-.45l5.66-5.6-7.89-1.09a.47.47,0,0,1-.38-.27l-3.58-7.11-3.47,7.17a.5.5,0,0,1-.38.27Z"
      style="fill:#263238"></path>
    <polygon
      points="88.24 305.9 87.45 310.72 90.98 314.1 86.15 314.84 84.03 319.24 81.83 314.88 76.99 314.22 80.46 310.78 79.59 305.97 83.94 308.21 88.24 305.9"
      style="fill:#fff"></polygon>
    <path
      d="M84,319.74a.49.49,0,0,1-.45-.27l-2.08-4.13-4.58-.63a.5.5,0,0,1-.41-.34.49.49,0,0,1,.13-.51l3.28-3.25-.82-4.55a.5.5,0,0,1,.72-.53l4.11,2.11L88,305.46a.49.49,0,0,1,.52,0,.5.5,0,0,1,.21.49L88,310.54l3.34,3.2a.51.51,0,0,1-.27.86l-4.57.7-2,4.16a.51.51,0,0,1-.45.28Zm-6-5.88,3.84.52a.54.54,0,0,1,.38.28L84,318.11l1.68-3.48a.51.51,0,0,1,.38-.28l3.82-.59-2.79-2.68a.51.51,0,0,1-.15-.44l.63-3.82-3.42,1.83a.47.47,0,0,1-.46,0l-3.44-1.77.68,3.81a.48.48,0,0,1-.14.44Z"
      style="fill:#263238"></path>
    <polygon
      points="150.67 470.94 147.12 468.89 143.43 470.65 144.28 466.65 141.47 463.67 145.54 463.25 147.5 459.65 149.16 463.39 153.19 464.15 150.14 466.88 150.67 470.94"
      style="fill:#fff"></polygon>
    <path
      d="M150.67,471.45a.55.55,0,0,1-.25-.07l-3.32-1.92-3.46,1.64a.49.49,0,0,1-.53-.06.5.5,0,0,1-.17-.49l.8-3.75L141.1,464a.5.5,0,0,1-.1-.52.48.48,0,0,1,.41-.32l3.81-.4,1.84-3.37a.55.55,0,0,1,.46-.26.5.5,0,0,1,.43.3l1.56,3.5,3.77.71a.49.49,0,0,1,.24.86l-2.85,2.56.49,3.8a.5.5,0,0,1-.49.57Zm-3.55-3.06a.52.52,0,0,1,.25.07L150,470l-.4-3.05a.52.52,0,0,1,.16-.44l2.3-2.06-3-.56a.52.52,0,0,1-.37-.29l-1.25-2.82L146,463.49a.53.53,0,0,1-.39.26l-3.07.32,2.12,2.23a.5.5,0,0,1,.13.45l-.64,3,2.78-1.33A.54.54,0,0,1,147.12,468.39Z"
      style="fill:#263238"></path>
    <polygon
      points="72.85 174.21 68.29 172.66 64.42 175.54 64.49 170.72 60.55 167.94 65.15 166.51 66.58 161.91 69.37 165.84 74.18 165.78 71.3 169.64 72.85 174.21"
      style="fill:#fff"></polygon>
    <path
      d="M64.42,176a.59.59,0,0,1-.22,0,.52.52,0,0,1-.28-.46L64,171l-3.72-2.63a.51.51,0,0,1-.2-.49.5.5,0,0,1,.34-.4l4.35-1.35,1.36-4.35a.47.47,0,0,1,.4-.34.47.47,0,0,1,.48.2l2.63,3.72,4.56-.06a.5.5,0,0,1,.4.8l-2.72,3.65,1.46,4.32a.48.48,0,0,1-.12.51.5.5,0,0,1-.51.12l-4.32-1.46-3.65,2.72A.45.45,0,0,1,64.42,176Zm-2.75-7.92,3.1,2.19a.51.51,0,0,1,.22.42l0,3.8,3-2.27a.47.47,0,0,1,.46-.07l3.6,1.22-1.22-3.61a.51.51,0,0,1,.07-.46l2.28-3.05-3.81.05a.47.47,0,0,1-.41-.21L66.76,163l-1.13,3.64a.5.5,0,0,1-.33.33Z"
      style="fill:#263238"></path>
    <polygon
      points="453.39 175.06 449.33 174.53 446.59 177.58 445.84 173.55 442.1 171.89 445.7 169.93 446.12 165.86 449.1 168.67 453.1 167.82 451.34 171.52 453.39 175.06"
      style="fill:#fff"></polygon>
    <path
      d="M446.59,178.08l-.13,0a.51.51,0,0,1-.36-.39l-.7-3.77-3.5-1.55a.5.5,0,0,1-.3-.44.49.49,0,0,1,.26-.46l3.37-1.83.39-3.81a.51.51,0,0,1,.33-.42.48.48,0,0,1,.51.1l2.79,2.64,3.75-.8a.48.48,0,0,1,.49.18.49.49,0,0,1,.06.52l-1.64,3.46,1.92,3.32a.53.53,0,0,1,0,.53.51.51,0,0,1-.48.22l-3.8-.5L447,177.91A.52.52,0,0,1,446.59,178.08Zm-3.36-6.24,2.82,1.26a.47.47,0,0,1,.28.36l.57,3L449,174.2a.48.48,0,0,1,.44-.16l3.05.4-1.54-2.67a.52.52,0,0,1,0-.47l1.32-2.78-3,.64a.49.49,0,0,1-.45-.12l-2.24-2.12-.32,3.06a.48.48,0,0,1-.25.39Z"
      style="fill:#263238"></path>
    <polygon
      points="272.95 52.77 274.75 48.72 272.43 44.94 276.85 45.4 279.72 42.02 280.65 46.36 284.75 48.06 280.91 50.28 280.57 54.7 277.27 51.74 272.95 52.77"
      style="fill:#fff"></polygon>
    <path
      d="M280.57,55.2a.5.5,0,0,1-.34-.13l-3.1-2.79-4.06,1a.52.52,0,0,1-.5-.16.51.51,0,0,1-.07-.53l1.69-3.81L272,45.2a.51.51,0,0,1,0-.53.52.52,0,0,1,.48-.23l4.15.43,2.7-3.17a.5.5,0,0,1,.87.22l.88,4.08,3.85,1.59a.5.5,0,0,1,.31.43.51.51,0,0,1-.25.47l-3.61,2.09-.32,4.16a.5.5,0,0,1-.32.42A.39.39,0,0,1,280.57,55.2Zm-3.3-4a.5.5,0,0,1,.33.12l2.55,2.29.26-3.41a.52.52,0,0,1,.25-.39l3-1.72-3.16-1.31a.5.5,0,0,1-.3-.35l-.71-3.35-2.22,2.6a.52.52,0,0,1-.44.18l-3.4-.36,1.79,2.92a.47.47,0,0,1,0,.46l-1.39,3.13,3.33-.8Z"
      style="fill:#263238"></path>
  </g>

</svg>